<svg width="171" height="67" viewBox="0 0 171 67" fill="none" xmlns="http://www.w3.org/2000/svg">
<g clip-path="url(#clip0_5137_52703)">
<g clip-path="url(#clip1_5137_52703)">
<path d="M43.0224 10.1833C43.0224 10.2934 43.2793 10.9534 43.5723 11.6868L44.0861 12.9703L42.2891 14.8771C40.6023 16.6372 40.0155 17.7006 40.749 17.7006C40.9323 17.7006 41.8489 16.8939 42.8025 15.8672C44.4893 14.0703 44.5625 14.0703 46.2127 14.2903C47.5694 14.4737 47.8629 14.4004 47.7162 13.997C47.643 13.7036 47.2028 13.447 46.7626 13.3736C45.8826 13.2269 45.7729 12.8602 46.3228 11.7968C46.6163 11.2468 46.5793 11.1001 46.1761 11.1001C45.8826 11.1001 45.516 11.2468 45.4059 11.4668C45.0027 12.0902 44.5259 11.8702 44.2694 10.9167C44.1593 10.4034 43.8292 10 43.5357 10C43.2427 10 43.0224 10.0733 43.0224 10.1833Z" fill="#0D1C4F"/>
<path d="M21.3872 13.8505C21.3872 14.1439 21.7172 14.694 22.1206 15.024C23.074 15.8674 23.0374 16.0874 21.7539 18.9843C20.5071 21.7712 20.4338 22.1012 21.2039 22.1012C21.4972 22.1012 21.7539 21.9179 21.7539 21.6979C21.7539 21.4779 22.2673 20.2311 22.8907 18.9476C23.9541 16.8208 24.1374 16.6374 25.3475 16.5275C27.0343 16.3808 27.401 15.5007 25.7876 15.5007C24.7242 15.5007 24.6142 15.4273 24.8342 14.5839C25.0175 13.9239 24.9075 13.6672 24.5041 13.6672C24.2108 13.6672 23.9541 13.9239 23.9541 14.2172C23.9541 15.024 22.9273 14.8773 22.6707 14.0339C22.414 13.1905 21.3872 13.0438 21.3872 13.8505Z" fill="black"/>
<path d="M32.7917 15.2069C32.9017 16.417 32.755 16.7837 32.2049 17.1137C31.8016 17.3337 31.3982 17.5904 31.2882 17.7004C31.1782 17.8104 30.4082 18.3605 29.5281 18.9106C28.6847 19.4606 28.0613 20.084 28.1713 20.304C28.3179 20.524 28.868 20.3773 29.5647 19.9373C30.2248 19.5339 31.4349 18.8372 32.2783 18.3605C33.7451 17.6271 33.8551 17.5904 34.5152 18.1771C35.2485 18.8372 36.422 19.0205 36.422 18.4339C36.422 18.2505 35.9819 17.8471 35.4319 17.5538C34.5518 17.1137 34.4785 17.0037 35.0652 16.7837C35.3952 16.637 35.6886 16.2703 35.6886 15.9769C35.6886 15.5736 35.4319 15.5003 34.7718 15.6469C33.9284 15.867 33.8551 15.7569 33.8551 14.7668C33.8551 13.9968 33.6718 13.6668 33.2684 13.6668C32.8283 13.6668 32.7183 13.9968 32.7917 15.2069Z" fill="#0D1C4F"/>
<path d="M14.4201 15.5002C14.4201 16.3436 13.98 16.417 12.9533 15.7936C12.5866 15.5369 12.1466 15.4636 11.9999 15.6103C11.6332 15.9403 13.1366 17.3337 13.8334 17.3337C14.2734 17.3337 14.4201 17.9938 14.4934 20.524C14.5668 22.6508 14.7501 23.751 15.0802 23.8609C15.4102 23.971 15.5202 23.1642 15.5202 20.744V17.4804L16.8036 17.0037C17.5003 16.747 18.087 16.307 18.087 15.9769C18.087 15.6103 17.9037 15.5002 17.4637 15.6836C15.8135 16.3436 15.5202 16.3436 15.5202 15.5369C15.5202 15.0969 15.3002 14.7668 14.9701 14.7668C14.6768 14.7668 14.4201 15.0969 14.4201 15.5002Z" fill="black"/>
<path d="M8.47936 17.1506C8.00267 18.1774 7.52597 18.3241 7.23259 17.5173C6.82922 16.4906 6.2425 16.9306 6.49922 18.0673C6.68253 19.0941 6.60921 19.1675 5.61912 19.1675C4.84905 19.1675 4.51904 19.3508 4.51904 19.7542C4.51904 20.1942 4.84905 20.3042 6.05915 20.1942C7.56264 20.1208 7.63596 20.1575 8.95609 22.0644C10.6429 24.4846 11.3396 25.218 11.5963 24.7779C11.743 24.5946 11.0829 23.3111 10.1295 21.9177L8.47936 19.4241L9.06608 18.1774C9.39612 17.5173 9.6528 16.7839 9.6528 16.6006C9.6528 15.9038 8.88273 16.2705 8.47936 17.1506Z" fill="black"/>
<path d="M2.64912 21.9909C2.61245 22.1742 2.64912 22.761 2.68579 23.3477C2.72245 24.1911 2.64912 24.3744 2.13574 24.1544C1.07231 23.751 0.705617 24.3744 1.58569 25.0345L2.4291 25.6579L1.65903 26.3546C1.21899 26.7213 0.852295 27.1613 0.852295 27.308C0.852295 27.8947 1.84238 27.5647 2.64912 26.7213L3.49252 25.8412L6.09608 26.7213C8.95632 27.7114 9.79972 27.8214 9.5797 27.198C9.50638 26.978 8.22291 26.3179 6.71946 25.7679C4.70262 25.0711 3.93256 24.5944 3.85922 24.0811C3.60253 22.3943 3.38251 21.7342 3.05248 21.7342C2.83247 21.7342 2.68579 21.8442 2.64912 21.9909Z" fill="black"/>
<path d="M12.9165 27.5648C11.413 29.0683 11.4497 30.9018 12.9532 32.4419C13.9432 33.3953 14.0532 33.7253 13.8332 34.8988C13.4665 36.8789 11.9264 40.1059 8.84615 45.203C5.65586 50.4834 4.55579 53.197 4.26241 56.4605C4.07906 58.3676 4.1524 58.7708 4.59245 58.7708C4.99582 58.7708 5.21583 58.1843 5.36253 56.4605C5.6192 53.2336 6.68262 50.7034 10.3129 44.7263C13.1732 39.9592 15.1166 35.7055 15.1533 34.1287C15.1533 33.762 15.52 33.3953 16.0334 33.2486C17.2068 32.9553 18.417 31.5985 18.5269 30.4984C18.8203 27.1248 15.2267 25.2546 12.9165 27.5648ZM16.6201 27.9682C18.0869 28.7382 17.7202 31.7085 16.1067 32.1485C14.86 32.4786 14.4566 32.4052 13.6865 31.6352C11.6697 29.6183 14.0532 26.5747 16.6201 27.9682Z" fill="black"/>
<path d="M28.3543 29.5085C27.9509 29.9485 27.6209 30.4252 27.6209 30.5352C27.6209 30.6819 26.5208 30.5719 25.164 30.3152C23.7706 30.0585 22.2671 29.8385 21.7537 29.8018C20.0669 29.8018 21.6804 30.6819 24.3939 31.2686C26.8509 31.8187 27.0342 31.9287 27.4375 33.1021C28.0243 34.8989 28.9044 35.0823 28.5743 33.3221C28.3543 32.112 28.391 32.002 29.1244 32.112C29.5644 32.1487 30.0044 31.9654 30.0778 31.7087C30.1878 31.4887 30.0044 31.2686 29.6744 31.2686C28.831 31.2686 28.5743 30.5719 29.2344 29.8385C29.5644 29.4718 29.8211 29.0685 29.8211 28.9584C29.8211 28.4451 29.0877 28.7384 28.3543 29.5085Z" fill="black"/>
<path d="M0.48535 29.7649C0.48535 29.9482 0.74204 30.3516 1.0354 30.6816C1.80546 31.415 1.73212 32.0017 0.852047 32.0017C0.41201 32.0017 0.118652 32.2584 0.118652 32.5884C0.118652 33.0285 0.375341 33.1385 1.07207 32.9918C1.95214 32.8452 1.98881 32.8818 1.76879 34.0552C1.58544 35.0453 1.65878 35.302 2.09882 35.302C2.46552 35.302 2.75888 34.8253 2.90555 33.9086L3.12557 32.5518L6.05915 31.8184C7.67262 31.415 8.91939 30.9016 8.84606 30.7183C8.69937 30.2783 8.25934 30.2783 5.3991 30.9016C3.16224 31.3783 3.16224 31.3783 2.09882 30.4249C0.998726 29.3982 0.48535 29.1781 0.48535 29.7649Z" fill="black"/>
<path d="M7.67262 35.3389C5.65582 37.5391 5.58245 37.5758 4.51904 37.1357C3.38227 36.659 2.31885 36.8424 2.31885 37.5024C2.31885 37.6858 2.61221 37.8691 2.97891 37.8691C3.30893 37.8691 3.85898 38.0525 4.15234 38.2359C4.59236 38.4925 4.59236 38.6759 4.22568 39.0426C3.63896 39.6293 3.67563 40.0693 4.33568 40.0693C4.62902 40.0693 4.88574 39.886 4.88574 39.666C4.88574 38.9326 5.7658 39.5559 5.98582 40.436C6.09585 40.9127 6.38919 41.3528 6.64586 41.4628C7.19592 41.6462 7.23259 40.3993 6.68257 39.1892C6.2792 38.3458 6.42585 38.1258 8.3327 36.1824C9.46944 35.0456 10.3862 33.9455 10.3862 33.7988C10.3862 32.882 9.5061 33.3588 7.67262 35.3389Z" fill="black"/>
<path d="M20.1405 33.4321C19.9938 33.6522 20.8005 34.8256 21.974 36.0357C24.0275 38.1992 24.0641 38.2726 23.6608 39.4827C23.0741 41.0594 23.1108 41.5362 23.7708 41.5362C24.0641 41.5362 24.3209 41.2428 24.3209 40.8761C24.3209 40.5461 24.5042 39.996 24.6876 39.7027C24.9443 39.2626 25.1276 39.2626 25.4943 39.6293C26.081 40.216 26.5211 40.1794 26.5211 39.5193C26.5211 39.2259 26.3744 38.9693 26.1544 38.9693C25.311 38.9693 25.8976 38.1992 26.8877 37.9792C27.5111 37.8692 27.9878 37.5391 27.9878 37.2825C27.9878 36.6591 27.2178 36.6224 25.971 37.2091C25.0909 37.6125 24.8709 37.5025 22.7074 35.339C21.2773 33.9088 20.2872 33.1754 20.1405 33.4321Z" fill="black"/>
<path d="M17.5002 38.1989L17.7569 41.4625L16.4735 42.0859C15.74 42.4526 15.1533 42.966 15.1533 43.2226C15.1533 43.8827 15.8867 43.846 16.8035 43.1493C17.4635 42.6359 17.5369 42.6726 17.7202 43.406C18.0136 44.6161 18.8203 44.7261 18.8203 43.5526C18.8203 42.7459 18.9303 42.5993 19.4804 42.8193C21.6439 43.736 22.2673 43.0393 20.1404 42.0492C18.7836 41.3892 18.4536 40.4357 18.4536 37.0988C18.4536 35.852 18.3069 35.302 17.8669 35.1553C17.3169 34.9353 17.2802 35.2653 17.5002 38.1989Z" fill="black"/>
</g>
</g>
<path d="M59.1778 38.6102C57.2437 38.6102 55.656 37.9938 54.4147 36.7609C53.1734 35.528 52.5527 33.9224 52.5527 31.944C52.5527 30.6824 52.8414 29.5642 53.4188 28.5894C53.9961 27.6146 54.7756 26.8547 55.757 26.31C56.7674 25.7652 57.9076 25.4928 59.1778 25.4928C60.9099 25.4928 62.3821 25.8942 63.5945 26.697C63.999 26.9551 64.2008 27.3135 64.2008 27.7722C64.2008 28.2309 64.0561 28.5894 63.7677 28.8474C63.4794 29.1055 63.1468 29.2345 62.7718 29.2345C62.512 29.2345 62.281 29.1771 62.079 29.0625C61.0109 28.3457 60.015 28.0303 59.0912 28.1163C57.9654 28.2309 57.0849 28.618 56.4498 29.2775C55.8148 29.9083 55.4972 30.8114 55.4972 31.987C55.4972 33.2199 55.8292 34.1948 56.4931 34.9116C57.186 35.5997 58.1531 35.9438 59.3943 35.9438C60.4913 35.9438 61.5882 35.528 62.6852 34.6965C62.9162 34.4958 63.2196 34.3955 63.5945 34.3955C64.0276 34.3955 64.3454 34.5675 64.5472 34.9116C64.7784 35.227 64.8936 35.528 64.8936 35.8147C64.8936 36.2162 64.7057 36.5889 64.3307 36.9329C63.6093 37.5637 62.8151 37.9938 61.9491 38.2232C61.0831 38.4812 60.1593 38.6102 59.1778 38.6102ZM72.2686 38.6102C70.9982 38.6102 69.8438 38.3236 68.8045 37.7501C67.7939 37.1766 66.9998 36.3882 66.423 35.3846C65.8453 34.3525 65.557 33.2056 65.557 31.944C65.557 30.7111 65.8453 29.6072 66.423 28.6324C66.9998 27.6576 67.7939 26.8977 68.8045 26.353C69.8438 25.7795 70.9982 25.4928 72.2686 25.4928C73.5382 25.4928 74.6788 25.7795 75.6894 26.353C76.6992 26.8977 77.4934 27.6576 78.071 28.6324C78.6772 29.6072 78.9803 30.7111 78.9803 31.944C78.9803 33.2056 78.6772 34.3525 78.071 35.3846C77.4934 36.3882 76.6992 37.1766 75.6894 37.7501C74.6788 38.3236 73.5382 38.6102 72.2686 38.6102ZM72.2686 35.9438C73.3945 35.9438 74.3038 35.5853 74.9966 34.8686C75.6894 34.1231 76.0358 33.1482 76.0358 31.944C76.0358 30.7972 75.6894 29.8796 74.9966 29.1915C74.3038 28.5034 73.3945 28.1593 72.2686 28.1593C71.1134 28.1593 70.1902 28.5034 69.4974 29.1915C68.8331 29.8796 68.5014 30.7972 68.5014 31.944C68.5014 33.1482 68.8331 34.1231 69.4974 34.8686C70.1902 35.5853 71.1134 35.9438 72.2686 35.9438ZM83.6395 31.815V37.277C83.6395 37.7071 83.4811 38.0368 83.1632 38.2662C82.8748 38.4956 82.5423 38.6102 82.1673 38.6102C81.7923 38.6102 81.4459 38.4956 81.1281 38.2662C80.8397 38.0368 80.6951 37.7071 80.6951 37.277V27.1701C80.6951 26.6827 80.8397 26.3243 81.1281 26.0949C81.4459 25.8369 81.7923 25.7078 82.1673 25.7078C82.5423 25.7078 82.8748 25.8369 83.1632 26.0949C83.4811 26.3243 83.6395 26.6827 83.6395 27.1701V27.3421C84.044 26.7974 84.5636 26.353 85.1984 26.0089C85.8626 25.6648 86.5554 25.4928 87.2768 25.4928C87.6232 25.4928 87.9697 25.5358 88.3161 25.6218C88.6625 25.7078 88.9223 25.8799 89.0955 26.1379C89.2687 26.396 89.3553 26.6827 89.3553 26.9981C89.3553 27.3708 89.2254 27.7149 88.9656 28.0303C88.7344 28.317 88.3879 28.4604 87.9264 28.4604C87.7246 28.4604 87.5081 28.4317 87.2768 28.3743C87.0751 28.317 86.8153 28.2883 86.4974 28.2883C85.66 28.2883 84.9672 28.6037 84.419 29.2345C83.8993 29.8653 83.6395 30.7254 83.6395 31.815ZM96.0393 38.6102C93.8742 38.6102 92.1855 37.9938 90.973 36.7609C89.7606 35.528 89.1544 33.865 89.1544 31.772C89.1544 29.937 89.7606 28.4317 90.973 27.2561C92.214 26.0805 93.8015 25.4928 95.7362 25.4928C97.612 25.4928 99.1137 26.0375 100.239 27.1271C101.365 28.1879 101.928 29.5069 101.928 31.0838C101.928 31.7146 101.755 32.1877 101.409 32.5031C101.091 32.8185 100.673 32.9762 100.153 32.9762H92.6185C92.3292 32.9762 92.2288 33.1339 92.3154 33.4493C92.5457 34.2521 93.0082 34.8829 93.701 35.3416C94.4224 35.7717 95.2304 35.9868 96.1259 35.9868C96.7893 35.9868 97.4249 35.9007 98.0311 35.7287C98.6659 35.5567 99.2141 35.2986 99.6766 34.9546C99.8203 34.8399 100.008 34.7825 100.239 34.7825C100.556 34.7825 100.846 34.9259 101.106 35.2126C101.365 35.4707 101.495 35.7861 101.495 36.1588C101.495 36.3308 101.466 36.5029 101.409 36.6749C101.351 36.8469 101.221 37.019 101.019 37.191C100.268 37.7357 99.4601 38.1085 98.5941 38.3092C97.7566 38.5099 96.9053 38.6102 96.0393 38.6102ZM98.5507 30.7398C98.724 30.7398 98.8106 30.6538 98.8106 30.4817C98.8106 29.8222 98.5074 29.2489 97.9012 28.7614C97.3236 28.274 96.6022 28.0303 95.7362 28.0303C94.9853 28.0303 94.2639 28.2309 93.5711 28.6324C92.9069 29.0338 92.5024 29.5642 92.3587 30.2237C92.3587 30.2237 92.3587 30.238 92.3587 30.2667C92.3292 30.3813 92.3154 30.4817 92.3154 30.5677C92.344 30.6538 92.4739 30.6968 92.7051 30.6968L98.5507 30.7398ZM109.927 38.6102C108.656 38.6102 107.502 38.3236 106.463 37.7501C105.452 37.1766 104.659 36.3882 104.081 35.3846C103.504 34.3525 103.215 33.2056 103.215 31.944C103.215 30.7111 103.504 29.6072 104.081 28.6324C104.659 27.6576 105.452 26.8977 106.463 26.353C107.502 25.7795 108.656 25.4928 109.927 25.4928C111.197 25.4928 112.337 25.7795 113.348 26.353C114.358 26.8977 115.152 27.6576 115.729 28.6324C116.335 29.6072 116.639 30.7111 116.639 31.944C116.639 33.2056 116.335 34.3525 115.729 35.3846C115.152 36.3882 114.358 37.1766 113.348 37.7501C112.337 38.3236 111.197 38.6102 109.927 38.6102ZM109.927 35.9438C111.053 35.9438 111.962 35.5853 112.655 34.8686C113.348 34.1231 113.694 33.1482 113.694 31.944C113.694 30.7972 113.348 29.8796 112.655 29.1915C111.962 28.5034 111.053 28.1593 109.927 28.1593C108.772 28.1593 107.848 28.5034 107.156 29.1915C106.491 29.8796 106.16 30.7972 106.16 31.944C106.16 33.1482 106.491 34.1231 107.156 34.8686C107.848 35.5853 108.772 35.9438 109.927 35.9438ZM125.108 38.6102C124.3 38.6102 123.579 38.4669 122.943 38.1802C122.308 37.9221 121.76 37.5637 121.298 37.105V43.0831C121.298 43.5132 121.139 43.8429 120.821 44.0723C120.533 44.3017 120.201 44.4163 119.825 44.4163C119.451 44.4163 119.104 44.3017 118.786 44.0723C118.498 43.8429 118.353 43.5132 118.353 43.0831V27.1701C118.353 26.6827 118.498 26.3243 118.786 26.0949C119.104 25.8369 119.451 25.7078 119.825 25.7078C120.172 25.7078 120.49 25.8225 120.778 26.0519C121.067 26.2526 121.241 26.5536 121.298 26.9551C121.76 26.525 122.308 26.1809 122.943 25.9229C123.579 25.6362 124.3 25.4928 125.108 25.4928C126.379 25.4928 127.49 25.7795 128.442 26.353C129.425 26.8977 130.189 27.6576 130.737 28.6324C131.286 29.6072 131.56 30.7111 131.56 31.944C131.56 33.2056 131.286 34.3525 130.737 35.3846C130.189 36.3882 129.425 37.1766 128.442 37.7501C127.49 38.3236 126.379 38.6102 125.108 38.6102ZM124.848 35.9438C125.974 35.9438 126.884 35.5853 127.576 34.8686C128.269 34.1231 128.616 33.1482 128.616 31.944C128.616 30.7972 128.269 29.8796 127.576 29.1915C126.884 28.5034 125.974 28.1593 124.848 28.1593C123.752 28.1593 122.886 28.5034 122.25 29.1915C121.616 29.8796 121.298 30.7972 121.298 31.944C121.298 33.1482 121.616 34.1231 122.25 34.8686C122.886 35.5853 123.752 35.9438 124.848 35.9438ZM137.806 38.6102C136.969 38.6102 136.117 38.4956 135.251 38.2662C134.385 38.0655 133.62 37.7357 132.956 37.277C132.61 36.9616 132.437 36.6175 132.437 36.2448C132.437 35.8721 132.581 35.5423 132.87 35.2556C133.187 34.9689 133.534 34.8255 133.909 34.8255C134.111 34.8255 134.313 34.8829 134.515 34.9976C135.035 35.313 135.627 35.571 136.29 35.7717C136.983 35.9438 137.633 36.0298 138.239 36.0298C138.817 36.0298 139.308 35.9294 139.711 35.7287C140.144 35.528 140.361 35.1982 140.361 34.7395C140.361 34.2808 140.159 33.9367 139.754 33.7073C139.351 33.4779 138.658 33.3059 137.676 33.1912C137.272 33.1339 136.781 33.0622 136.204 32.9762C135.656 32.8902 135.107 32.7325 134.558 32.5031C134.01 32.2737 133.549 31.9296 133.173 31.4709C132.798 31.0122 132.61 30.3957 132.61 29.6216C132.61 28.36 133.072 27.3565 133.995 26.611C134.948 25.8655 136.218 25.4928 137.806 25.4928C138.73 25.4928 139.596 25.6075 140.404 25.8369C141.241 26.0663 141.862 26.353 142.266 26.697C142.584 26.9551 142.742 27.2561 142.742 27.6002C142.742 27.9729 142.612 28.3027 142.353 28.5894C142.093 28.8761 141.776 29.0195 141.4 29.0195C141.198 29.0195 141.01 28.9764 140.837 28.8904C140.375 28.6324 139.856 28.446 139.278 28.3313C138.73 28.1879 138.196 28.1163 137.676 28.1163C137.07 28.1163 136.55 28.2167 136.117 28.4173C135.714 28.5894 135.511 28.8761 135.511 29.2775C135.511 29.5642 135.627 29.8222 135.857 30.0516C136.117 30.2523 136.767 30.4244 137.806 30.5677C138.297 30.6251 138.845 30.7111 139.451 30.8258C140.087 30.9405 140.693 31.1268 141.27 31.3849C141.848 31.6143 142.324 31.987 142.699 32.5031C143.075 33.0192 143.262 33.7217 143.262 34.6105C143.262 35.528 143.002 36.2878 142.482 36.8899C141.963 37.4634 141.285 37.8935 140.447 38.1802C139.639 38.4669 138.759 38.6102 137.806 38.6102ZM147.637 38.8253C147.089 38.8253 146.612 38.6389 146.208 38.2662C145.833 37.9221 145.645 37.5064 145.645 37.019C145.645 36.5029 145.833 36.0728 146.208 35.7287C146.612 35.356 147.089 35.1696 147.637 35.1696C148.157 35.1696 148.604 35.356 148.979 35.7287C149.354 36.0728 149.542 36.5029 149.542 37.019C149.542 37.5064 149.354 37.9221 148.979 38.2662C148.604 38.6389 148.157 38.8253 147.637 38.8253Z" fill="black"/>
<path d="M158.384 38.6111C157.143 38.6111 156.032 38.3244 155.05 37.7509C154.069 37.1774 153.304 36.389 152.755 35.3855C152.207 34.3533 151.933 33.2064 151.933 31.9448C151.933 30.7119 152.207 29.608 152.755 28.6332C153.304 27.6584 154.069 26.8985 155.05 26.3538C156.032 25.7803 157.143 25.4936 158.384 25.4936C159.192 25.4936 159.915 25.637 160.55 25.9237C161.184 26.1817 161.733 26.5258 162.195 26.9559C162.253 26.5544 162.426 26.2534 162.715 26.0527C163.003 25.8233 163.321 25.7087 163.667 25.7087C164.042 25.7087 164.375 25.8377 164.663 26.0957C164.981 26.3251 165.139 26.6835 165.139 27.1709V37.2778C165.139 37.7079 164.981 38.0376 164.663 38.267C164.375 38.4964 164.042 38.6111 163.667 38.6111C163.292 38.6111 162.946 38.4964 162.628 38.267C162.34 38.0376 162.195 37.7079 162.195 37.2778V37.1058C161.733 37.5645 161.184 37.9229 160.55 38.181C159.915 38.4677 159.192 38.6111 158.384 38.6111ZM158.644 35.9446C159.742 35.9446 160.608 35.5861 161.242 34.8694C161.877 34.1239 162.195 33.149 162.195 31.9448C162.195 30.798 161.877 29.8804 161.242 29.1923C160.608 28.5042 159.742 28.1601 158.644 28.1601C157.518 28.1601 156.609 28.5042 155.916 29.1923C155.224 29.8804 154.877 30.798 154.877 31.9448C154.877 33.149 155.224 34.1239 155.916 34.8694C156.609 35.5861 157.518 35.9446 158.644 35.9446ZM169.051 38.6111C168.676 38.6111 168.33 38.4964 168.012 38.267C167.724 38.0376 167.579 37.7079 167.579 37.2778V26.9559C167.579 26.4684 167.724 26.1101 168.012 25.8807C168.33 25.6226 168.676 25.4936 169.051 25.4936C169.427 25.4936 169.759 25.6226 170.047 25.8807C170.365 26.1101 170.524 26.4684 170.524 26.9559V37.2778C170.524 37.7079 170.365 38.0376 170.047 38.267C169.759 38.4964 169.427 38.6111 169.051 38.6111ZM169.095 23.1282C168.546 23.1282 168.07 22.9561 167.666 22.6121C167.291 22.2394 167.103 21.7949 167.103 21.2788C167.103 20.7914 167.291 20.3757 167.666 20.0316C168.07 19.6589 168.546 19.4725 169.095 19.4725C169.614 19.4725 170.062 19.6589 170.437 20.0316C170.813 20.3757 171 20.7914 171 21.2788C171 21.7949 170.813 22.2394 170.437 22.6121C170.062 22.9561 169.614 23.1282 169.095 23.1282Z" fill="#19369D"/>
<defs>
<clipPath id="clip0_5137_52703">
<rect width="93.8944" height="46.9472" fill="white" transform="translate(0 10)"/>
</clipPath>
<clipPath id="clip1_5137_52703">
<rect width="94.3576" height="49.0493" fill="white" transform="translate(0.119141 10)"/>
</clipPath>
</defs>
</svg>
